<?xml version="1.0" encoding="utf-8" standalone="no"?>
<!DOCTYPE svg PUBLIC "-//W3C//DTD SVG 1.1//EN"
  "http://www.w3.org/Graphics/SVG/1.1/DTD/svg11.dtd">
<svg xmlns:xlink="http://www.w3.org/1999/xlink" width="1080pt" height="360pt" viewBox="0 0 1080 360" xmlns="http://www.w3.org/2000/svg" version="1.1">
 <metadata>
  <rdf:RDF xmlns:dc="http://purl.org/dc/elements/1.1/" xmlns:cc="http://creativecommons.org/ns#" xmlns:rdf="http://www.w3.org/1999/02/22-rdf-syntax-ns#">
   <cc:Work>
    <dc:type rdf:resource="http://purl.org/dc/dcmitype/StillImage"/>
    <dc:date>2024-11-22T21:42:29.185910</dc:date>
    <dc:format>image/svg+xml</dc:format>
    <dc:creator>
     <cc:Agent>
      <dc:title>Matplotlib v3.9.2, https://matplotlib.org/</dc:title>
     </cc:Agent>
    </dc:creator>
   </cc:Work>
  </rdf:RDF>
 </metadata>
 <defs>
  <style type="text/css">*{stroke-linejoin: round; stroke-linecap: butt}</style>
 </defs>
 <g id="figure_1">
  <g id="patch_1">
   <path d="M 0 360 
L 1080 360 
L 1080 0 
L 0 0 
z
" style="fill: #ffffff"/>
  </g>
  <g id="axes_1">
   <g id="patch_2">
    <path d="M 135 320.4 
L 381.176471 320.4 
L 381.176471 43.2 
L 135 43.2 
z
" style="fill: #ffffff"/>
   </g>
   <g id="PathCollection_1">
    <defs>
     <path id="mf9e3b00cc7" d="M 0 3 
C 0.795609 3 1.55874 2.683901 2.12132 2.12132 
C 2.683901 1.55874 3 0.795609 3 0 
C 3 -0.795609 2.683901 -1.55874 2.12132 -2.12132 
C 1.55874 -2.683901 0.795609 -3 0 -3 
C -0.795609 -3 -1.55874 -2.683901 -2.12132 -2.12132 
C -2.683901 -1.55874 -3 -0.795609 -3 0 
C -3 0.795609 -2.683901 1.55874 -2.12132 2.12132 
C -1.55874 2.683901 -0.795609 3 0 3 
z
" style="stroke: #000000"/>
    </defs>
    <g clip-path="url(#p4a26a91027)">
     <use xlink:href="#mf9e3b00cc7" x="363.52835" y="297.293954" style="stroke: #000000"/>
     <use xlink:href="#mf9e3b00cc7" x="322.389754" y="159.925233" style="stroke: #000000"/>
     <use xlink:href="#mf9e3b00cc7" x="218.779294" y="222.960004" style="stroke: #000000"/>
     <use xlink:href="#mf9e3b00cc7" x="146.18984" y="90.703462" style="stroke: #000000"/>
     <use xlink:href="#mf9e3b00cc7" x="168.990924" y="204.510205" style="stroke: #000000"/>
     <use xlink:href="#mf9e3b00cc7" x="193.788113" y="55.8" style="stroke: #000000"/>
     <use xlink:href="#mf9e3b00cc7" x="313.854347" y="164.868499" style="stroke: #000000"/>
     <use xlink:href="#mf9e3b00cc7" x="369.986631" y="202.597667" style="stroke: #000000"/>
     <use xlink:href="#mf9e3b00cc7" x="309.484525" y="307.8" style="stroke: #000000"/>
     <use xlink:href="#mf9e3b00cc7" x="155.68853" y="79.694907" style="stroke: #000000"/>
    </g>
   </g>
   <g id="matplotlib.axis_1"/>
   <g id="matplotlib.axis_2"/>
   <g id="patch_3">
    <path d="M 135 320.4 
L 135 43.2 
" style="fill: none; stroke: #000000; stroke-width: 0.8; stroke-linejoin: miter; stroke-linecap: square"/>
   </g>
   <g id="patch_4">
    <path d="M 381.176471 320.4 
L 381.176471 43.2 
" style="fill: none; stroke: #000000; stroke-width: 0.8; stroke-linejoin: miter; stroke-linecap: square"/>
   </g>
   <g id="patch_5">
    <path d="M 135 320.4 
L 381.176471 320.4 
" style="fill: none; stroke: #000000; stroke-width: 0.8; stroke-linejoin: miter; stroke-linecap: square"/>
   </g>
   <g id="patch_6">
    <path d="M 135 43.2 
L 381.176471 43.2 
" style="fill: none; stroke: #000000; stroke-width: 0.8; stroke-linejoin: miter; stroke-linecap: square"/>
   </g>
   <g id="text_1">
    <!-- $\text{X}_i$ -->
    <g transform="translate(366.233711 293.637425) scale(0.1 -0.1)">
     <defs>
      <path id="DejaVuSans-58" d="M 403 4666 
L 1081 4666 
L 2241 2931 
L 3406 4666 
L 4084 4666 
L 2584 2425 
L 4184 0 
L 3506 0 
L 2194 1984 
L 872 0 
L 191 0 
L 1856 2491 
L 403 4666 
z
" transform="scale(0.015625)"/>
      <path id="DejaVuSans-Oblique-69" d="M 1172 4863 
L 1747 4863 
L 1606 4134 
L 1031 4134 
L 1172 4863 
z
M 909 3500 
L 1484 3500 
L 800 0 
L 225 0 
L 909 3500 
z
" transform="scale(0.015625)"/>
     </defs>
     <use xlink:href="#DejaVuSans-58" transform="translate(0 0.09375)"/>
     <use xlink:href="#DejaVuSans-Oblique-69" transform="translate(69.462891 -16.3125) scale(0.7)"/>
    </g>
   </g>
  </g>
  <g id="axes_2">
   <g id="patch_7">
    <path d="M 430.411765 320.4 
L 676.588235 320.4 
L 676.588235 43.2 
L 430.411765 43.2 
z
" style="fill: #ffffff"/>
   </g>
   <g id="PathCollection_2">
    <g clip-path="url(#paa7747a820)">
     <use xlink:href="#mf9e3b00cc7" x="658.940115" y="297.297851" style="stroke: #000000"/>
     <use xlink:href="#mf9e3b00cc7" x="617.801519" y="159.980084" style="stroke: #000000"/>
     <use xlink:href="#mf9e3b00cc7" x="514.191059" y="222.991474" style="stroke: #000000"/>
     <use xlink:href="#mf9e3b00cc7" x="441.601604" y="90.78399" style="stroke: #000000"/>
     <use xlink:href="#mf9e3b00cc7" x="464.402688" y="204.548519" style="stroke: #000000"/>
     <use xlink:href="#mf9e3b00cc7" x="489.199877" y="55.893475" style="stroke: #000000"/>
     <use xlink:href="#mf9e3b00cc7" x="609.266112" y="164.921516" style="stroke: #000000"/>
     <use xlink:href="#mf9e3b00cc7" x="665.398396" y="202.63669" style="stroke: #000000"/>
     <use xlink:href="#mf9e3b00cc7" x="604.896289" y="307.8" style="stroke: #000000"/>
     <use xlink:href="#mf9e3b00cc7" x="451.100294" y="79.779519" style="stroke: #000000"/>
    </g>
   </g>
   <g id="PathCollection_3">
    <defs>
     <path id="mb6a7057f19" d="M 0 3 
C 0.795609 3 1.55874 2.683901 2.12132 2.12132 
C 2.683901 1.55874 3 0.795609 3 0 
C 3 -0.795609 2.683901 -1.55874 2.12132 -2.12132 
C 1.55874 -2.683901 0.795609 -3 0 -3 
C -0.795609 -3 -1.55874 -2.683901 -2.12132 -2.12132 
C -2.683901 -1.55874 -3 -0.795609 -3 0 
C -3 0.795609 -2.683901 1.55874 -2.12132 2.12132 
C -1.55874 2.683901 -0.795609 3 0 3 
z
" style="stroke: #0000ff"/>
    </defs>
    <g clip-path="url(#paa7747a820)">
     <use xlink:href="#mb6a7057f19" x="539.672489" y="170.463039" style="fill: #0000ff; stroke: #0000ff"/>
    </g>
   </g>
   <g id="patch_8">
    <path d="M 539.672489 170.463039 
L 529.958758 159.133209 
L 533.329613 156.422444 
L 489.083641 55.986949 
L 489.316114 55.8 
L 533.562086 156.235495 
L 536.932941 153.52473 
z
" clip-path="url(#paa7747a820)" style="fill: #0000ff; stroke: #0000ff; stroke-linejoin: miter"/>
   </g>
   <g id="PathCollection_4">
    <defs>
     <path id="md2ac71f956" d="M 0 3 
C 0.795609 3 1.55874 2.683901 2.12132 2.12132 
C 2.683901 1.55874 3 0.795609 3 0 
C 3 -0.795609 2.683901 -1.55874 2.12132 -2.12132 
C 1.55874 -2.683901 0.795609 -3 0 -3 
C -0.795609 -3 -1.55874 -2.683901 -2.12132 -2.12132 
C -2.683901 -1.55874 -3 -0.795609 -3 0 
C -3 0.795609 -2.683901 1.55874 -2.12132 2.12132 
C -1.55874 2.683901 -0.795609 3 0 3 
z
" style="stroke: #ff0000"/>
    </defs>
    <g clip-path="url(#paa7747a820)">
     <use xlink:href="#md2ac71f956" x="489.199877" y="55.893475" style="fill: #ff0000; stroke: #ff0000"/>
     <use xlink:href="#md2ac71f956" x="514.191059" y="222.991474" style="fill: #ff0000; stroke: #ff0000"/>
     <use xlink:href="#md2ac71f956" x="451.100294" y="79.779519" style="fill: #ff0000; stroke: #ff0000"/>
    </g>
   </g>
   <g id="matplotlib.axis_3"/>
   <g id="matplotlib.axis_4"/>
   <g id="line2d_1">
    <path d="M 514.191059 222.991474 
L 451.100294 79.779519 
" clip-path="url(#paa7747a820)" style="fill: none; stroke-dasharray: 5.55,2.4; stroke-dashoffset: 0; stroke: #ff0000; stroke-width: 1.5"/>
   </g>
   <g id="patch_9">
    <path d="M 430.411765 320.4 
L 430.411765 43.2 
" style="fill: none; stroke: #000000; stroke-width: 0.8; stroke-linejoin: miter; stroke-linecap: square"/>
   </g>
   <g id="patch_10">
    <path d="M 676.588235 320.4 
L 676.588235 43.2 
" style="fill: none; stroke: #000000; stroke-width: 0.8; stroke-linejoin: miter; stroke-linecap: square"/>
   </g>
   <g id="patch_11">
    <path d="M 430.411765 320.4 
L 676.588235 320.4 
" style="fill: none; stroke: #000000; stroke-width: 0.8; stroke-linejoin: miter; stroke-linecap: square"/>
   </g>
   <g id="patch_12">
    <path d="M 430.411765 43.2 
L 676.588235 43.2 
" style="fill: none; stroke: #000000; stroke-width: 0.8; stroke-linejoin: miter; stroke-linecap: square"/>
   </g>
   <g id="text_2">
    <!-- $\text{V}_i$ -->
    <g transform="translate(542.37785 166.807867) scale(0.1 -0.1)">
     <defs>
      <path id="DejaVuSans-56" d="M 1831 0 
L 50 4666 
L 709 4666 
L 2188 738 
L 3669 4666 
L 4325 4666 
L 2547 0 
L 1831 0 
z
" transform="scale(0.015625)"/>
     </defs>
     <use xlink:href="#DejaVuSans-56" transform="translate(0 0.09375)"/>
     <use xlink:href="#DejaVuSans-Oblique-69" transform="translate(69.365234 -16.3125) scale(0.7)"/>
    </g>
   </g>
   <g id="text_3">
    <!-- $\text{X}_i$ -->
    <g transform="translate(661.645476 293.642679) scale(0.1 -0.1)">
     <use xlink:href="#DejaVuSans-58" transform="translate(0 0.09375)"/>
     <use xlink:href="#DejaVuSans-Oblique-69" transform="translate(69.462891 -16.3125) scale(0.7)"/>
    </g>
   </g>
   <g id="text_4">
    <!-- $\text{X}_a$ -->
    <g transform="translate(491.905238 52.238302) scale(0.1 -0.1)">
     <defs>
      <path id="DejaVuSans-Oblique-61" d="M 3438 1997 
L 3047 0 
L 2472 0 
L 2578 531 
Q 2325 219 2001 64 
Q 1678 -91 1281 -91 
Q 834 -91 548 182 
Q 263 456 263 884 
Q 263 1497 752 1853 
Q 1241 2209 2100 2209 
L 2900 2209 
L 2931 2363 
Q 2938 2388 2941 2417 
Q 2944 2447 2944 2509 
Q 2944 2788 2717 2942 
Q 2491 3097 2081 3097 
Q 1800 3097 1504 3025 
Q 1209 2953 897 2809 
L 997 3341 
Q 1322 3463 1633 3523 
Q 1944 3584 2234 3584 
Q 2853 3584 3176 3315 
Q 3500 3047 3500 2534 
Q 3500 2431 3484 2292 
Q 3469 2153 3438 1997 
z
M 2816 1759 
L 2241 1759 
Q 1534 1759 1195 1570 
Q 856 1381 856 984 
Q 856 709 1029 553 
Q 1203 397 1509 397 
Q 1978 397 2328 733 
Q 2678 1069 2791 1631 
L 2816 1759 
z
" transform="scale(0.015625)"/>
     </defs>
     <use xlink:href="#DejaVuSans-58" transform="translate(0 0.09375)"/>
     <use xlink:href="#DejaVuSans-Oblique-61" transform="translate(69.462891 -16.3125) scale(0.7)"/>
    </g>
   </g>
   <g id="text_5">
    <!-- $\text{X}_b$ -->
    <g transform="translate(516.89642 219.336302) scale(0.1 -0.1)">
     <defs>
      <path id="DejaVuSans-Oblique-62" d="M 3169 2138 
Q 3169 2591 2961 2847 
Q 2753 3103 2388 3103 
Q 2122 3103 1889 2973 
Q 1656 2844 1484 2597 
Q 1303 2338 1198 1995 
Q 1094 1653 1094 1313 
Q 1094 881 1298 636 
Q 1503 391 1863 391 
Q 2134 391 2365 517 
Q 2597 644 2772 891 
Q 2950 1147 3059 1487 
Q 3169 1828 3169 2138 
z
M 1381 2969 
Q 1594 3256 1914 3420 
Q 2234 3584 2584 3584 
Q 3122 3584 3439 3221 
Q 3756 2859 3756 2241 
Q 3756 1734 3570 1259 
Q 3384 784 3041 416 
Q 2816 172 2522 40 
Q 2228 -91 1906 -91 
Q 1566 -91 1316 65 
Q 1066 222 909 531 
L 806 0 
L 231 0 
L 1178 4863 
L 1753 4863 
L 1381 2969 
z
" transform="scale(0.015625)"/>
     </defs>
     <use xlink:href="#DejaVuSans-58" transform="translate(0 0.09375)"/>
     <use xlink:href="#DejaVuSans-Oblique-62" transform="translate(69.462891 -16.3125) scale(0.7)"/>
    </g>
   </g>
   <g id="text_6">
    <!-- $\text{X}_c$ -->
    <g transform="translate(453.805655 76.124346) scale(0.1 -0.1)">
     <defs>
      <path id="DejaVuSans-Oblique-63" d="M 3431 3366 
L 3316 2797 
Q 3109 2947 2876 3022 
Q 2644 3097 2394 3097 
Q 2119 3097 1870 3000 
Q 1622 2903 1453 2725 
Q 1184 2453 1037 2087 
Q 891 1722 891 1331 
Q 891 859 1127 628 
Q 1363 397 1844 397 
Q 2081 397 2348 469 
Q 2616 541 2906 684 
L 2797 116 
Q 2547 13 2283 -39 
Q 2019 -91 1741 -91 
Q 1044 -91 669 257 
Q 294 606 294 1253 
Q 294 1797 489 2255 
Q 684 2713 1069 3078 
Q 1331 3328 1684 3456 
Q 2038 3584 2456 3584 
Q 2700 3584 2940 3529 
Q 3181 3475 3431 3366 
z
" transform="scale(0.015625)"/>
     </defs>
     <use xlink:href="#DejaVuSans-58" transform="translate(0 0.09375)"/>
     <use xlink:href="#DejaVuSans-Oblique-63" transform="translate(69.462891 -16.3125) scale(0.7)"/>
    </g>
   </g>
  </g>
  <g id="axes_3">
   <g id="patch_13">
    <path d="M 725.823529 320.4 
L 972 320.4 
L 972 43.2 
L 725.823529 43.2 
z
" style="fill: #ffffff"/>
   </g>
   <g id="PathCollection_5">
    <g clip-path="url(#p5ae6ebcc90)">
     <use xlink:href="#mf9e3b00cc7" x="954.35188" y="297.293954" style="stroke: #000000"/>
     <use xlink:href="#mf9e3b00cc7" x="913.213284" y="159.925233" style="stroke: #000000"/>
     <use xlink:href="#mf9e3b00cc7" x="809.602824" y="222.960004" style="stroke: #000000"/>
     <use xlink:href="#mf9e3b00cc7" x="737.013369" y="90.703462" style="stroke: #000000"/>
     <use xlink:href="#mf9e3b00cc7" x="759.814453" y="204.510205" style="stroke: #000000"/>
     <use xlink:href="#mf9e3b00cc7" x="784.611642" y="55.8" style="stroke: #000000"/>
     <use xlink:href="#mf9e3b00cc7" x="904.677876" y="164.868499" style="stroke: #000000"/>
     <use xlink:href="#mf9e3b00cc7" x="960.81016" y="202.597667" style="stroke: #000000"/>
     <use xlink:href="#mf9e3b00cc7" x="900.308054" y="307.8" style="stroke: #000000"/>
     <use xlink:href="#mf9e3b00cc7" x="746.512059" y="79.694907" style="stroke: #000000"/>
    </g>
   </g>
   <g id="PathCollection_6">
    <g clip-path="url(#p5ae6ebcc90)">
     <use xlink:href="#md2ac71f956" x="784.611642" y="55.8" style="fill: #ff0000; stroke: #ff0000"/>
     <use xlink:href="#md2ac71f956" x="809.602824" y="222.960004" style="fill: #ff0000; stroke: #ff0000"/>
     <use xlink:href="#md2ac71f956" x="746.512059" y="79.694907" style="fill: #ff0000; stroke: #ff0000"/>
    </g>
   </g>
   <g id="PathCollection_7">
    <defs>
     <path id="mb0c3dcd1db" d="M 0 3 
C 0.795609 3 1.55874 2.683901 2.12132 2.12132 
C 2.683901 1.55874 3 0.795609 3 0 
C 3 -0.795609 2.683901 -1.55874 2.12132 -2.12132 
C 1.55874 -2.683901 0.795609 -3 0 -3 
C -0.795609 -3 -1.55874 -2.683901 -2.12132 -2.12132 
C -2.683901 -1.55874 -3 -0.795609 -3 0 
C -3 0.795609 -2.683901 1.55874 -2.12132 2.12132 
C -1.55874 2.683901 -0.795609 3 0 3 
z
" style="stroke: #ff0000"/>
    </defs>
    <g clip-path="url(#p5ae6ebcc90)">
     <use xlink:href="#mb0c3dcd1db" x="835.084254" y="170.412077" style="fill: #0000ff; stroke: #ff0000"/>
    </g>
   </g>
   <g id="PathCollection_8">
    <defs>
     <path id="m737f9d8bf3" d="M 0 3 
C 0.795609 3 1.55874 2.683901 2.12132 2.12132 
C 2.683901 1.55874 3 0.795609 3 0 
C 3 -0.795609 2.683901 -1.55874 2.12132 -2.12132 
C 1.55874 -2.683901 0.795609 -3 0 -3 
C -0.795609 -3 -1.55874 -2.683901 -2.12132 -2.12132 
C -2.683901 -1.55874 -3 -0.795609 -3 0 
C -3 0.795609 -2.683901 1.55874 -2.12132 2.12132 
C -1.55874 2.683901 -0.795609 3 0 3 
z
" style="stroke: #ff0000"/>
    </defs>
    <g clip-path="url(#p5ae6ebcc90)">
     <use xlink:href="#m737f9d8bf3" x="954.35188" y="170.412077" style="fill: #006400; stroke: #ff0000"/>
    </g>
   </g>
   <g id="PathCollection_9">
    <defs>
     <path id="maea5926b28" d="M 0 3 
C 0.795609 3 1.55874 2.683901 2.12132 2.12132 
C 2.683901 1.55874 3 0.795609 3 0 
C 3 -0.795609 2.683901 -1.55874 2.12132 -2.12132 
C 1.55874 -2.683901 0.795609 -3 0 -3 
C -0.795609 -3 -1.55874 -2.683901 -2.12132 -2.12132 
C -2.683901 -1.55874 -3 -0.795609 -3 0 
C -3 0.795609 -2.683901 1.55874 -2.12132 2.12132 
C -1.55874 2.683901 -0.795609 3 0 3 
z
" style="stroke: #ff0000; stroke-opacity: 0.6"/>
    </defs>
    <g clip-path="url(#p5ae6ebcc90)">
     <use xlink:href="#maea5926b28" x="835.084254" y="297.293954" style="fill-opacity: 0.6; stroke: #ff0000; stroke-opacity: 0.6"/>
    </g>
   </g>
   <g id="matplotlib.axis_5"/>
   <g id="matplotlib.axis_6"/>
   <g id="LineCollection_1">
    <path d="M 835.084254 297.293954 
L 954.35188 297.293954 
" clip-path="url(#p5ae6ebcc90)" style="fill: none; stroke-dasharray: 2.96,1.28; stroke-dashoffset: 0; stroke: #1f77b4; stroke-width: 0.8"/>
    <path d="M 835.084254 170.412077 
L 954.35188 170.412077 
" clip-path="url(#p5ae6ebcc90)" style="fill: none; stroke-dasharray: 2.96,1.28; stroke-dashoffset: 0; stroke: #1f77b4; stroke-width: 0.8"/>
   </g>
   <g id="LineCollection_2">
    <path d="M 835.084254 297.293954 
L 835.084254 170.412077 
" clip-path="url(#p5ae6ebcc90)" style="fill: none; stroke-dasharray: 2.96,1.28; stroke-dashoffset: 0; stroke: #1f77b4; stroke-width: 0.8"/>
    <path d="M 954.35188 297.293954 
L 954.35188 170.412077 
" clip-path="url(#p5ae6ebcc90)" style="fill: none; stroke-dasharray: 2.96,1.28; stroke-dashoffset: 0; stroke: #1f77b4; stroke-width: 0.8"/>
   </g>
   <g id="patch_14">
    <path d="M 725.823529 320.4 
L 725.823529 43.2 
" style="fill: none; stroke: #000000; stroke-width: 0.8; stroke-linejoin: miter; stroke-linecap: square"/>
   </g>
   <g id="patch_15">
    <path d="M 972 320.4 
L 972 43.2 
" style="fill: none; stroke: #000000; stroke-width: 0.8; stroke-linejoin: miter; stroke-linecap: square"/>
   </g>
   <g id="patch_16">
    <path d="M 725.823529 320.4 
L 972 320.4 
" style="fill: none; stroke: #000000; stroke-width: 0.8; stroke-linejoin: miter; stroke-linecap: square"/>
   </g>
   <g id="patch_17">
    <path d="M 725.823529 43.2 
L 972 43.2 
" style="fill: none; stroke: #000000; stroke-width: 0.8; stroke-linejoin: miter; stroke-linecap: square"/>
   </g>
   <g id="text_7">
    <!-- $\text{V}_i$ -->
    <g transform="translate(837.789615 166.755549) scale(0.1 -0.1)">
     <use xlink:href="#DejaVuSans-56" transform="translate(0 0.09375)"/>
     <use xlink:href="#DejaVuSans-Oblique-69" transform="translate(69.365234 -16.3125) scale(0.7)"/>
    </g>
   </g>
   <g id="text_8">
    <!-- $\text{U}_i$ -->
    <g transform="translate(957.057241 166.755549) scale(0.1 -0.1)">
     <defs>
      <path id="DejaVuSans-55" d="M 556 4666 
L 1191 4666 
L 1191 1831 
Q 1191 1081 1462 751 
Q 1734 422 2344 422 
Q 2950 422 3222 751 
Q 3494 1081 3494 1831 
L 3494 4666 
L 4128 4666 
L 4128 1753 
Q 4128 841 3676 375 
Q 3225 -91 2344 -91 
Q 1459 -91 1007 375 
Q 556 841 556 1753 
L 556 4666 
z
" transform="scale(0.015625)"/>
     </defs>
     <use xlink:href="#DejaVuSans-55" transform="translate(0 0.09375)"/>
     <use xlink:href="#DejaVuSans-Oblique-69" transform="translate(74.150391 -16.3125) scale(0.7)"/>
    </g>
   </g>
   <g id="text_9">
    <!-- $\text{X}_i$ -->
    <g transform="translate(957.057241 293.637425) scale(0.1 -0.1)">
     <use xlink:href="#DejaVuSans-58" transform="translate(0 0.09375)"/>
     <use xlink:href="#DejaVuSans-Oblique-69" transform="translate(69.462891 -16.3125) scale(0.7)"/>
    </g>
   </g>
   <g id="text_10">
    <!-- $\text{X}_a$ -->
    <g transform="translate(787.317003 52.143471) scale(0.1 -0.1)">
     <use xlink:href="#DejaVuSans-58" transform="translate(0 0.09375)"/>
     <use xlink:href="#DejaVuSans-Oblique-61" transform="translate(69.462891 -16.3125) scale(0.7)"/>
    </g>
   </g>
   <g id="text_11">
    <!-- $\text{X}_b$ -->
    <g transform="translate(812.308185 219.303475) scale(0.1 -0.1)">
     <use xlink:href="#DejaVuSans-58" transform="translate(0 0.09375)"/>
     <use xlink:href="#DejaVuSans-Oblique-62" transform="translate(69.462891 -16.3125) scale(0.7)"/>
    </g>
   </g>
   <g id="text_12">
    <!-- $\text{X}_c$ -->
    <g transform="translate(749.21742 76.038379) scale(0.1 -0.1)">
     <use xlink:href="#DejaVuSans-58" transform="translate(0 0.09375)"/>
     <use xlink:href="#DejaVuSans-Oblique-63" transform="translate(69.462891 -16.3125) scale(0.7)"/>
    </g>
   </g>
  </g>
 </g>
 <defs>
  <clipPath id="p4a26a91027">
   <rect x="135" y="43.2" width="246.176471" height="277.2"/>
  </clipPath>
  <clipPath id="paa7747a820">
   <rect x="430.411765" y="43.2" width="246.176471" height="277.2"/>
  </clipPath>
  <clipPath id="p5ae6ebcc90">
   <rect x="725.823529" y="43.2" width="246.176471" height="277.2"/>
  </clipPath>
 </defs>
</svg>
